# xmcd
#
# Track frame offsets: 
#        150
#        13786
#        34968
#        48360
#        64543
#        81658
#        94951
#        107964
#        120569
#        133271
#        149118
#        163996
#        182412
#        197124
#        218195
#        241962
#        253995
#        268602
#        282307
#        297940
#
# Disc length: 4288 seconds
#
# Revision: 1
# Processed by: cddbd v1.5.2PL0 Copyright (c) Steve Scherf et al.
# Submitted via: ExactAudioCopyFreeDBPlugin 1.0
#
DISCID=4610be14
DTITLE=Diverse Interpreten - The Very Best Of Blues CD2
DYEAR=2015
DGENRE=Blues
TTITLE0=Shake, rattle and roll - Joe Turner
TTITLE1=I was robbed last night - Electric Flag  - Mike Bloomfield
TTITLE2=Long way back home - Gordon Lightfoot
TTITLE3=Better walk the line - Linda Ronstadt
TTITLE4=Jungle blues - Boz Scaggs
TTITLE5=Out on the water coast - Eric Clapton
TTITLE6=Let's get together - Jimmy Reed
TTITLE7=Going down slow - Ray Charles
TTITLE8=Choo choo ch'boogie - Louis Jordan
TTITLE9=Im the midnight creeper - Eddie "Cleanhead" Vinson
TTITLE10=Texas hop - Pee Wee Crayton
TTITLE11=Driftin' blues - Charles Brown
TTITLE12=Baby please don't go - Muddy Waters
TTITLE13=Payday - Jessie Winchester
TTITLE14=Johnny G. is back - Johnny "Guitar" Watson
TTITLE15=Walkin' and talkin' - Bo Diddley
TTITLE16=Fannie Mae - Johnny Otis
TTITLE17=Hush - Roy Milton
TTITLE18=Goin' back to L.A. - Joe Liggins and The Honeydrippers
TTITLE19=Saturday night fish fry - Louis Jordan
EXTD=
EXTT0=
EXTT1=
EXTT2=
EXTT3=
EXTT4=
EXTT5=
EXTT6=
EXTT7=
EXTT8=
EXTT9=
EXTT10=
EXTT11=
EXTT12=
EXTT13=
EXTT14=
EXTT15=
EXTT16=
EXTT17=
EXTT18=
EXTT19=
PLAYORDER=
